<svg width="79" height="77" viewBox="0 0 79 77" fill="none" xmlns="http://www.w3.org/2000/svg">
<path d="M10.9154 60.7745C14.2641 54.0326 16.0004 46.6047 15.987 39.0769C15.9902 35.4168 16.814 31.804 18.3979 28.5044C19.9817 25.2048 22.2852 22.3023 25.1389 20.0104" stroke="white" stroke-width="3" stroke-linecap="round" stroke-linejoin="round"/>
<path d="M40.3924 39.0769C40.4089 51.4842 37.2589 63.6906 31.2405 74.5405" stroke="white" stroke-width="3" stroke-linecap="round" stroke-linejoin="round"/>
<path d="M28.1899 39.0769C28.1899 35.8406 29.4755 32.7368 31.7639 30.4484C34.0523 28.16 37.1561 26.8744 40.3924 26.8744C43.6287 26.8744 46.7325 28.16 49.0209 30.4484C51.3093 32.7368 52.5949 35.8406 52.5949 39.0769C52.6201 51.6556 49.8456 64.0822 44.4726 75.4557" stroke="white" stroke-width="3" stroke-linecap="round" stroke-linejoin="round"/>
<path d="M74.9408 60.4313C76.3069 53.3952 76.9964 46.2444 77 39.0769C77 29.368 73.1431 20.0567 66.2779 13.1914C59.4126 6.32616 50.1013 2.4693 40.3924 2.4693C30.6835 2.4693 21.3722 6.32616 14.5069 13.1914C7.64167 20.0567 3.78481 29.368 3.78481 39.0769C3.79572 43.235 3.08612 47.3636 1.6875 51.2794" stroke="white" stroke-width="3" stroke-linecap="round" stroke-linejoin="round"/>
<path d="M26.9693 51.2794C25.6521 57.6956 23.3223 63.8612 20.0673 69.5451" stroke="white" stroke-width="3" stroke-linecap="round" stroke-linejoin="round"/>
<path d="M37.3418 14.8625C38.3542 14.7408 39.3727 14.6771 40.3924 14.6718C46.865 14.6718 53.0725 17.2431 57.6494 21.8199C62.2262 26.3967 64.7975 32.6043 64.7975 39.0769C64.7939 43.1562 64.5392 47.2314 64.0348 51.2794" stroke="white" stroke-width="3" stroke-linecap="round" stroke-linejoin="round"/>
<path d="M61.709 63.482C61.137 65.7318 60.4887 67.9816 59.7642 70.1552" stroke="white" stroke-width="3" stroke-linecap="round" stroke-linejoin="round"/>
</svg>
