<svg width="44" height="44" viewBox="0 0 44 44" fill="none" xmlns="http://www.w3.org/2000/svg">
<path d="M21.9587 0C20.3077 0 18.6567 0.166984 17.0056 0.584441C17.0056 0.667932 17.0056 0.751423 17.0056 0.834915V27.9696C17.0056 28.5541 16.5103 28.9715 16.015 28.9715H14.0338C13.621 28.9715 13.2908 28.6376 13.2908 28.2201V1.75332C5.4484 5.09298 0 12.9412 0 21.9583C0 34.148 9.82364 44 22.0413 44C34.2589 44 44 34.148 44 22.0417C44 9.93549 34.0938 0 21.9587 0ZM21.546 31.1423C21.546 31.6433 21.1332 32.0607 20.6379 32.0607H18.6567C18.1614 32.0607 17.7486 31.6433 17.7486 31.1423V17.1992C17.7486 16.6983 18.1614 16.2808 18.6567 16.2808H20.6379C21.1332 16.2808 21.546 16.6983 21.546 17.1992V31.1423ZM26.0038 32.4782C26.0038 32.9791 25.591 33.3966 25.0957 33.3966H23.1144C22.6191 33.3966 22.2064 32.9791 22.2064 32.4782V15.8634C22.2064 15.3624 22.6191 14.945 23.1144 14.945H25.0957C25.591 14.945 26.0038 15.3624 26.0038 15.8634V32.4782ZM30.4615 29.9734C30.4615 30.4744 30.0488 30.8918 29.5535 30.8918H27.5722C27.0769 30.8918 26.6642 30.4744 26.6642 29.9734V18.5351C26.6642 18.0342 27.0769 17.6167 27.5722 17.6167H29.5535C30.0488 17.6167 30.4615 18.0342 30.4615 18.5351V29.9734Z" fill="#6B6B84"/>
</svg>
